<?xml version="1.0" standalone="no"?>
<!DOCTYPE svg PUBLIC "-//W3C//DTD SVG 20010904//EN"
 "http://www.w3.org/TR/2001/REC-SVG-20010904/DTD/svg10.dtd">
<svg version="1.0" xmlns="http://www.w3.org/2000/svg"
 width="256.000000pt" height="256.000000pt" viewBox="0 0 256.000000 256.000000"
 preserveAspectRatio="xMidYMid meet">

<g class="logo--svg" transform="translate(0.000000,256.000000) scale(0.100000,-0.100000)"
fill="#f4f6f8">
<path d="M0 2388 l0 -171 23 44 c27 51 91 104 145 119 24 6 360 10 977 10
l940 0 50 -24 c55 -25 110 -81 131 -132 19 -45 21 -1103 2 -1122 -20 -20 -65
-14 -82 10 -14 20 -16 88 -16 543 0 498 -1 521 -20 552 -40 67 18 63 -1010 63
-1038 0 -977 4 -1018 -69 -22 -39 -22 -41 -22 -680 0 -695 -2 -668 55 -721
l27 -25 582 -5 c624 -5 616 -5 616 -55 0 -12 -8 -29 -18 -38 -17 -15 -72 -17
-588 -17 -361 0 -583 4 -606 10 -54 15 -118 68 -145 119 l-23 44 0 -421 0
-422 1280 0 1280 0 0 394 0 394 -154 -105 -154 -106 58 -172 c49 -148 56 -176
46 -196 -24 -50 -55 -39 -215 80 l-149 110 -153 -110 c-83 -60 -159 -109 -169
-109 -22 0 -50 31 -50 56 0 10 19 73 41 139 23 66 47 139 54 161 l13 42 -149
102 c-154 106 -172 126 -149 169 10 20 18 21 205 21 l194 0 56 172 c30 94 61
178 67 185 11 14 56 17 74 5 6 -4 38 -87 70 -184 l59 -178 190 0 c135 0 195
-4 203 -12 9 -9 12 178 12 845 l0 857 -1280 0 -1280 0 0 -172z m675 -652 c344
-376 356 -386 460 -386 108 0 133 20 402 315 376 414 377 415 403 415 29 0 60
-27 60 -51 0 -15 -222 -266 -471 -534 l-28 -30 144 -130 c80 -72 147 -138 150
-147 17 -49 -36 -85 -81 -57 -13 8 -82 67 -154 133 l-130 118 -55 -50 c-76
-70 -145 -95 -250 -90 -95 4 -169 35 -231 98 -21 22 -42 40 -46 40 -8 0 -463
-414 -473 -430 -9 -14 -69 -12 -83 2 -23 23 -14 65 21 93 17 15 57 50 87 79
30 28 126 116 213 195 87 79 156 147 155 151 -2 5 -46 54 -99 111 -52 57 -147
160 -209 229 -63 69 -129 141 -147 160 -52 56 -40 114 22 108 24 -3 80 -59
340 -342z"/>
<path d="M1988 1004 c-3 -5 -20 -54 -38 -109 -18 -55 -39 -107 -47 -115 -10
-11 -44 -16 -129 -20 l-115 -5 82 -55 c119 -80 118 -77 75 -205 -20 -58 -36
-108 -36 -110 0 -3 44 27 97 65 54 39 105 70 114 70 10 0 59 -31 111 -69 51
-38 95 -68 96 -66 2 2 -12 52 -32 111 -43 129 -45 125 73 204 l82 55 -115 5
c-84 4 -119 9 -130 20 -8 8 -30 64 -49 124 -19 59 -37 104 -39 100z"/>
</g>
</svg>
